<svg width="1900" height="1900" viewBox="0 0 1900 1900" fill="none" xmlns="http://www.w3.org/2000/svg">
<path fill-rule="evenodd" clip-rule="evenodd" d="M0 949.854C0 1474.44 425.264 1899.71 949.854 1899.71C1474.44 1899.71 1899.71 1474.44 1899.71 949.854C1899.71 425.264 1474.44 0 949.854 0C425.264 0 0 425.264 0 949.854ZM949.991 666.045C718.134 666.045 512.281 777.387 382.988 949.522C512.281 1121.66 718.134 1233 949.991 1233C1181.85 1233 1387.71 1121.66 1517 949.522C1387.71 777.387 1181.85 666.045 949.991 666.045Z" fill="#F9F9FA"/>
<path d="M717.719 1108C630.061 1108 559 1036.94 559 949.281V949.281C559 861.623 630.061 790.561 717.719 790.561V790.561C805.377 790.561 876.438 861.623 876.438 949.281V949.281C876.438 1036.94 805.377 1108 717.719 1108V1108Z" fill="#F9F9FA"/>
</svg>
