<svg width="1900" height="1900" viewBox="0 0 1900 1900" fill="none" xmlns="http://www.w3.org/2000/svg">
<path fill-rule="evenodd" clip-rule="evenodd" d="M0 949.854C0 1474.44 425.263 1899.71 949.853 1899.71C1474.44 1899.71 1899.7 1474.44 1899.7 949.854C1899.7 425.264 1474.44 0 949.853 0C425.263 0 0 425.264 0 949.854ZM950.003 666.999C718.146 666.999 512.292 778.341 383 950.476C512.292 1122.61 718.146 1233.96 950.003 1233.96C1181.86 1233.96 1387.71 1122.61 1517.01 950.476C1387.71 778.341 1181.86 666.999 950.003 666.999Z" fill="#F9F9FA"/>
<path fill-rule="evenodd" clip-rule="evenodd" d="M950.003 667C718.146 667 512.292 778.342 383 950.476C512.292 1122.61 718.146 1233.96 950.003 1233.96C1181.86 1233.96 1387.72 1122.61 1517.01 950.476C1387.72 778.342 1181.86 667 950.003 667ZM563 949.719C563 1037.38 634.061 1108.44 721.719 1108.44C809.377 1108.44 880.438 1037.38 880.438 949.719C880.438 862.061 809.377 791 721.719 791C634.061 791 563 862.061 563 949.719Z" fill="#00FF6A"/>
</svg>
