<svg width="76" height="65" viewBox="0 0 76 65" fill="none" xmlns="http://www.w3.org/2000/svg">
<path d="M2 17.8733L2.32298 16H25.4965L25.1735 17.8733H14.596L9.42844 49.0727H7.40984L12.5774 17.8733H2Z" fill="#F9F9FA"/>
<path d="M31.302 32.9885L28.6374 49.0727H26.6673L32.1578 16H34.128L32.1255 28.1923H32.3193C33.0945 26.9004 34.1872 25.8723 35.5975 25.1079C37.0079 24.3328 38.612 23.9452 40.4099 23.9452C42.0786 23.9452 43.4889 24.3005 44.6408 25.011C45.7928 25.7108 46.6164 26.7174 47.1116 28.0308C47.6068 29.3335 47.7037 30.8946 47.4023 32.714L44.6731 49.0727H42.7191L45.4321 32.7947C45.7766 30.6739 45.4375 28.9729 44.4148 27.6917C43.4028 26.4106 41.8686 25.77 39.8124 25.77C38.4128 25.77 37.1101 26.0715 35.9044 26.6743C34.7093 27.2772 33.7027 28.1223 32.8845 29.2097C32.0771 30.2863 31.5496 31.5459 31.302 32.9885Z" fill="#F9F9FA"/>
<path d="M51.9684 58.3744C51.4731 58.3744 50.994 58.3206 50.5311 58.2129C50.079 58.1052 49.6698 57.9653 49.3038 57.793L50.1597 56.0651C51.0856 56.4527 51.963 56.5819 52.7919 56.4527C53.6317 56.3343 54.4176 55.9413 55.1497 55.2738C55.8925 54.6063 56.5923 53.6589 57.249 52.4316L58.8962 49.3311L54.0515 24.2682H56.0701L60.2365 46.5535H60.4142L71.9928 24.2682H74.2052L58.9123 53.2875C58.3094 54.4179 57.642 55.36 56.9099 56.1136C56.1778 56.8672 55.3919 57.4324 54.5522 57.8092C53.7232 58.186 52.8619 58.3744 51.9684 58.3744Z" fill="#F9F9FA"/>
</svg>
