<svg width="404" height="59" viewBox="0 0 404 59" fill="none" xmlns="http://www.w3.org/2000/svg">
<path d="M6.27617 12.8006L6.59914 10.9273H29.7726L29.4497 12.8006H18.8722L13.7046 44H11.686L16.8536 12.8006H6.27617ZM35.5781 27.9158L32.9136 44H30.9434L36.434 10.9273H38.4042L36.4017 23.1196H36.5955C37.3706 21.8277 38.4634 20.7996 39.8737 20.0352C41.284 19.2601 42.8881 18.8725 44.686 18.8725C46.3547 18.8725 47.7651 19.2278 48.917 19.9383C50.069 20.6381 50.8925 21.6447 51.3878 22.9581C51.883 24.2608 51.9799 25.8219 51.6785 27.6413L48.9493 44H46.9953L49.7083 27.722C50.0528 25.6012 49.7137 23.9002 48.6909 22.619C47.6789 21.3379 46.1448 20.6973 44.0885 20.6973C42.689 20.6973 41.3863 20.9988 40.1805 21.6016C38.9855 22.2045 37.9789 23.0497 37.1607 24.137C36.3533 25.2136 35.8257 26.4732 35.5781 27.9158ZM56.2445 53.3017C55.7493 53.3017 55.2702 53.2479 54.8073 53.1402C54.3551 53.0325 53.946 52.8926 53.58 52.7203L54.4359 50.9924C55.3617 51.38 56.2391 51.5092 57.0681 51.38C57.9078 51.2616 58.6938 50.8686 59.4258 50.2011C60.1687 49.5336 60.8685 48.5863 61.5252 47.3589L63.1723 44.2584L58.3277 19.1955H60.3463L64.5127 41.4808H64.6903L76.269 19.1955H78.4814L63.1885 48.2148C62.5856 49.3452 61.9181 50.2873 61.186 51.0409C60.454 51.7945 59.6681 52.3597 58.8283 52.7365C57.9994 53.1133 57.1381 53.3017 56.2445 53.3017Z" fill="#F9F9FA"/>
<path d="M110.296 10.9273H119.274V32.1145C119.274 34.6337 118.672 36.8138 117.466 38.6548C116.271 40.4849 114.602 41.9007 112.46 42.9019C110.317 43.8923 107.83 44.3876 104.999 44.3876C102.146 44.3876 99.6483 43.8923 97.5059 42.9019C95.3635 41.9007 93.6948 40.4849 92.4998 38.6548C91.3156 36.8138 90.7234 34.6337 90.7234 32.1145V10.9273H99.7022V31.3394C99.7022 32.3621 99.9282 33.2772 100.38 34.0847C100.833 34.8813 101.457 35.5057 102.254 35.9579C103.061 36.4101 103.976 36.6362 104.999 36.6362C106.032 36.6362 106.948 36.4101 107.744 35.9579C108.541 35.5057 109.165 34.8813 109.618 34.0847C110.07 33.2772 110.296 32.3621 110.296 31.3394V10.9273ZM123.671 53.3017V19.1955H132.521V23.5234H132.714C133.037 22.6836 133.511 21.9139 134.135 21.2141C134.76 20.5035 135.535 19.9383 136.461 19.5185C137.387 19.0878 138.463 18.8725 139.691 18.8725C141.327 18.8725 142.883 19.3085 144.358 20.1806C145.843 21.0526 147.049 22.4252 147.975 24.2985C148.912 26.1717 149.38 28.6048 149.38 31.5977C149.38 34.4615 148.933 36.8353 148.039 38.7193C147.157 40.6034 145.972 42.0083 144.487 42.9342C143.012 43.86 141.392 44.323 139.626 44.323C138.463 44.323 137.424 44.1346 136.509 43.7578C135.605 43.3702 134.83 42.8481 134.184 42.1913C133.549 41.5239 133.059 40.7702 132.714 39.9305H132.585V53.3017H123.671ZM132.391 31.5977C132.391 32.8035 132.547 33.8478 132.86 34.7306C133.183 35.6026 133.635 36.2809 134.216 36.7653C134.808 37.239 135.513 37.4759 136.332 37.4759C137.15 37.4759 137.844 37.2444 138.415 36.7815C138.996 36.3078 139.438 35.6349 139.739 34.7629C140.051 33.8801 140.207 32.825 140.207 31.5977C140.207 30.3704 140.051 29.3208 139.739 28.4487C139.438 27.5659 138.996 26.8931 138.415 26.4301C137.844 25.9564 137.15 25.7196 136.332 25.7196C135.513 25.7196 134.808 25.9564 134.216 26.4301C133.635 26.8931 133.183 27.5659 132.86 28.4487C132.547 29.3208 132.391 30.3704 132.391 31.5977ZM175.787 27.2699H167.584C167.54 26.7639 167.363 26.3279 167.051 25.9618C166.738 25.5958 166.335 25.3159 165.839 25.1221C165.355 24.9175 164.817 24.8153 164.225 24.8153C163.46 24.8153 162.804 24.9552 162.254 25.2351C161.705 25.515 161.436 25.9134 161.447 26.4301C161.436 26.7962 161.592 27.1353 161.915 27.4475C162.249 27.7597 162.89 28.0019 163.837 28.1742L168.875 29.0785C171.416 29.5415 173.306 30.322 174.544 31.4201C175.793 32.5075 176.422 33.9662 176.433 35.7964C176.422 37.562 175.895 39.0962 174.85 40.3988C173.817 41.6907 172.401 42.6919 170.603 43.4025C168.816 44.1023 166.776 44.4522 164.483 44.4522C160.693 44.4522 157.727 43.677 155.585 42.1267C153.453 40.5765 152.264 38.5309 152.016 35.9902H160.866C160.984 36.7761 161.372 37.3844 162.028 37.815C162.696 38.2349 163.536 38.4448 164.548 38.4448C165.366 38.4448 166.039 38.3049 166.566 38.025C167.104 37.745 167.379 37.3467 167.39 36.8299C167.379 36.3562 167.142 35.9794 166.679 35.6995C166.227 35.4196 165.516 35.1935 164.548 35.0213L160.155 34.2461C157.625 33.8047 155.73 32.965 154.471 31.7269C153.211 30.4889 152.587 28.8955 152.597 26.9469C152.587 25.2244 153.039 23.7656 153.954 22.5706C154.88 21.3648 156.199 20.4497 157.91 19.8253C159.633 19.1901 161.673 18.8725 164.031 18.8725C167.616 18.8725 170.442 19.6153 172.509 21.101C174.587 22.5867 175.679 24.643 175.787 27.2699Z" fill="#F9F9FA"/>
<path d="M188.854 16.1616V44.1294H180.411V16.1616H188.854Z" fill="#F9F9FA"/>
<path d="M200.991 16.1616V44.1294H192.548V16.1616H200.991Z" fill="#F9F9FA"/>
<path fill-rule="evenodd" clip-rule="evenodd" d="M189.382 6.06908C189.382 3.44614 187.255 1.31982 184.632 1.31982C182.009 1.31982 179.883 3.44614 179.883 6.06908C179.883 8.69202 182.009 10.8183 184.632 10.8183C187.255 10.8183 189.382 8.69202 189.382 6.06908ZM184.57 7.59283C185.729 7.59283 186.759 7.03612 187.405 6.17545C186.759 5.31478 185.729 4.75806 184.57 4.75806C183.411 4.75806 182.382 5.31478 181.735 6.17545C182.382 7.03612 183.411 7.59283 184.57 7.59283Z" fill="#F9F9FA"/>
<path d="M183.853 5.28711C184.291 5.28711 184.647 5.64241 184.647 6.0807V6.0807C184.647 6.51899 184.291 6.8743 183.853 6.8743V6.8743C183.415 6.8743 183.059 6.51899 183.059 6.0807V6.0807C183.059 5.64241 183.415 5.28711 183.853 5.28711V5.28711Z" fill="#F9F9FA"/>
<path fill-rule="evenodd" clip-rule="evenodd" d="M201.519 6.06908C201.519 3.44614 199.392 1.31982 196.769 1.31982C194.146 1.31982 192.02 3.44614 192.02 6.06908C192.02 8.69202 194.146 10.8183 196.769 10.8183C199.392 10.8183 201.519 8.69202 201.519 6.06908ZM196.707 7.59283C197.866 7.59283 198.895 7.03612 199.542 6.17545C198.895 5.31478 197.866 4.75806 196.707 4.75806C195.547 4.75806 194.518 5.31478 193.872 6.17545C194.518 7.03612 195.547 7.59283 196.707 7.59283Z" fill="#F9F9FA"/>
<path d="M195.99 5.28711C196.428 5.28711 196.784 5.64241 196.784 6.0807V6.0807C196.784 6.51899 196.428 6.8743 195.99 6.8743V6.8743C195.552 6.8743 195.197 6.51899 195.197 6.0807V6.0807C195.197 5.64241 195.552 5.28711 195.99 5.28711V5.28711Z" fill="#F9F9FA"/>
<path d="M215.414 44.323C213.648 44.323 212.023 43.86 210.537 42.9342C209.062 42.0083 207.878 40.6034 206.984 38.7193C206.101 36.8353 205.66 34.4615 205.66 31.5977C205.66 28.6048 206.123 26.1717 207.049 24.2985C207.985 22.4252 209.191 21.0526 210.666 20.1806C212.152 19.3085 213.713 18.8725 215.349 18.8725C216.577 18.8725 217.653 19.0878 218.579 19.5185C219.505 19.9383 220.28 20.5035 220.904 21.2141C221.529 21.9139 222.003 22.6836 222.326 23.5234H222.455V10.9273H231.369V44H222.519V39.9305H222.326C221.981 40.7702 221.486 41.5239 220.84 42.1913C220.205 42.8481 219.43 43.3702 218.514 43.7578C217.61 44.1346 216.577 44.323 215.414 44.323ZM218.708 37.4759C219.526 37.4759 220.226 37.239 220.808 36.7653C221.4 36.2809 221.852 35.6026 222.164 34.7306C222.487 33.8478 222.649 32.8035 222.649 31.5977C222.649 30.3704 222.487 29.3208 222.164 28.4487C221.852 27.5659 221.4 26.8931 220.808 26.4301C220.226 25.9564 219.526 25.7196 218.708 25.7196C217.89 25.7196 217.19 25.9564 216.609 26.4301C216.038 26.8931 215.597 27.5659 215.285 28.4487C214.983 29.3208 214.833 30.3704 214.833 31.5977C214.833 32.825 214.983 33.8801 215.285 34.7629C215.597 35.6349 216.038 36.3078 216.609 36.7815C217.19 37.2444 217.89 37.4759 218.708 37.4759ZM247.631 44.4522C244.982 44.4522 242.7 43.9462 240.784 42.9342C238.878 41.9114 237.408 40.4473 236.375 38.5417C235.352 36.6254 234.841 34.3323 234.841 31.6623C234.841 29.1001 235.358 26.8608 236.391 24.9444C237.425 23.0281 238.883 21.5371 240.767 20.4712C242.651 19.4054 244.875 18.8725 247.437 18.8725C249.31 18.8725 251.006 19.1632 252.524 19.7445C254.042 20.3259 255.339 21.171 256.416 22.2799C257.492 23.378 258.321 24.713 258.903 26.2848C259.484 27.8566 259.775 29.6276 259.775 31.5977V33.6648H237.618V28.7556H251.571C251.56 28.045 251.377 27.4206 251.022 26.8823C250.677 26.3332 250.209 25.908 249.617 25.6065C249.036 25.2943 248.374 25.1382 247.631 25.1382C246.909 25.1382 246.247 25.2943 245.644 25.6065C245.041 25.908 244.557 26.3279 244.191 26.8661C243.836 27.4044 243.647 28.0342 243.626 28.7556V34.0524C243.626 34.849 243.793 35.5596 244.126 36.184C244.46 36.8084 244.939 37.2983 245.564 37.6535C246.188 38.0088 246.942 38.1864 247.824 38.1864C248.438 38.1864 248.998 38.1003 249.504 37.9281C250.021 37.7558 250.462 37.5082 250.828 37.1852C251.194 36.8515 251.463 36.4531 251.636 35.9902H259.775C259.495 37.7127 258.833 39.2092 257.788 40.4796C256.744 41.7392 255.361 42.7189 253.638 43.4186C251.926 44.1077 249.924 44.4522 247.631 44.4522Z" fill="#F9F9FA"/>
<path fill-rule="evenodd" clip-rule="evenodd" d="M340.37 54.0886C340.37 56.7116 342.496 58.8379 345.119 58.8379C347.742 58.8379 349.868 56.7116 349.868 54.0886C349.868 51.4657 347.742 49.3394 345.119 49.3394C342.496 49.3394 340.37 51.4657 340.37 54.0886ZM345.181 52.5647C344.022 52.5647 342.992 53.1214 342.346 53.9821C342.992 54.8427 344.022 55.3994 345.181 55.3994C346.34 55.3994 347.369 54.8427 348.016 53.9821C347.369 53.1214 346.34 52.5647 345.181 52.5647Z" fill="#F9F9FA"/>
<path d="M345.898 54.8701C345.46 54.8701 345.104 54.5148 345.104 54.0765V54.0765C345.104 53.6382 345.46 53.2829 345.898 53.2829V53.2829C346.336 53.2829 346.691 53.6382 346.691 54.0765V54.0765C346.691 54.5148 346.336 54.8701 345.898 54.8701V54.8701Z" fill="#F9F9FA"/>
<path fill-rule="evenodd" clip-rule="evenodd" d="M357.255 54.0886C357.255 56.7116 359.382 58.8379 362.005 58.8379C364.628 58.8379 366.754 56.7116 366.754 54.0886C366.754 51.4657 364.628 49.3394 362.005 49.3394C359.382 49.3394 357.255 51.4657 357.255 54.0886ZM362.067 52.5647C360.908 52.5647 359.879 53.1214 359.232 53.9821C359.879 54.8427 360.908 55.3994 362.067 55.3994C363.227 55.3994 364.256 54.8427 364.902 53.9821C364.256 53.1214 363.227 52.5647 362.067 52.5647Z" fill="#F9F9FA"/>
<path d="M362.785 54.8701C362.346 54.8701 361.991 54.5148 361.991 54.0765V54.0765C361.991 53.6382 362.346 53.2829 362.785 53.2829V53.2829C363.223 53.2829 363.578 53.6382 363.578 54.0765V54.0765C363.578 54.5148 363.223 54.8701 362.785 54.8701V54.8701Z" fill="#F9F9FA"/>
<path d="M384.668 30.0475V44H375.754V19.1955H384.216V23.9109H384.474C385.013 22.3391 385.96 21.1064 387.317 20.2129C388.684 19.3193 390.277 18.8725 392.097 18.8725C393.851 18.8725 395.375 19.2762 396.667 20.0837C397.969 20.8803 398.976 21.9785 399.686 23.378C400.408 24.7776 400.763 26.3763 400.752 28.1742V44H391.838V30.0475C391.849 28.8201 391.537 27.8566 390.902 27.1568C390.277 26.457 389.405 26.1072 388.285 26.1072C387.553 26.1072 386.913 26.2686 386.364 26.5916C385.825 26.9038 385.411 27.356 385.12 27.9481C384.83 28.5295 384.679 29.2293 384.668 30.0475Z" fill="#F9F9FA"/>
<path d="M286.031 44H273.306V10.9273H285.902C289.304 10.9273 292.243 11.5894 294.719 12.9136C297.206 14.227 299.122 16.1218 300.468 18.598C301.825 21.0634 302.503 24.0186 302.503 27.4637C302.503 30.9087 301.83 33.8693 300.484 36.3455C299.139 38.8109 297.233 40.7056 294.768 42.0298C292.302 43.3433 289.39 44 286.031 44ZM282.285 36.3778H285.708C287.345 36.3778 288.739 36.114 289.891 35.5865C291.053 35.059 291.936 34.1492 292.539 32.8573C293.153 31.5654 293.46 29.7675 293.46 27.4637C293.46 25.1598 293.147 23.3619 292.523 22.07C291.909 20.7781 291.005 19.8683 289.81 19.3408C288.626 18.8133 287.172 18.5495 285.45 18.5495H282.285V36.3778ZM318.737 44.4522C316.045 44.4522 313.741 43.9193 311.825 42.8534C309.909 41.7769 308.439 40.2804 307.416 38.3641C306.393 36.437 305.882 34.2031 305.882 31.6623C305.882 29.1216 306.393 26.8931 307.416 24.9767C308.439 23.0497 309.909 21.5532 311.825 20.4874C313.741 19.4108 316.045 18.8725 318.737 18.8725C321.428 18.8725 323.732 19.4108 325.648 20.4874C327.565 21.5532 329.034 23.0497 330.057 24.9767C331.08 26.8931 331.591 29.1216 331.591 31.6623C331.591 34.2031 331.08 36.437 330.057 38.3641C329.034 40.2804 327.565 41.7769 325.648 42.8534C323.732 43.9193 321.428 44.4522 318.737 44.4522ZM318.801 37.8635C319.555 37.8635 320.206 37.6105 320.755 37.1045C321.304 36.5985 321.729 35.8772 322.031 34.9405C322.332 34.0039 322.483 32.8896 322.483 31.5977C322.483 30.2951 322.332 29.1808 322.031 28.2549C321.729 27.3183 321.304 26.597 320.755 26.091C320.206 25.585 319.555 25.332 318.801 25.332C318.004 25.332 317.321 25.585 316.75 26.091C316.18 26.597 315.744 27.3183 315.442 28.2549C315.141 29.1808 314.99 30.2951 314.99 31.5977C314.99 32.8896 315.141 34.0039 315.442 34.9405C315.744 35.8772 316.18 36.5985 316.75 37.1045C317.321 37.6105 318.004 37.8635 318.801 37.8635Z" fill="#F9F9FA"/>
<path d="M340.356 44.1293L334.155 19.3276H343.069L345.911 34.4411H346.105L349.27 19.3276H357.926L361.22 34.312H361.414L364.127 19.3276H373.041L366.84 44.1293H357.215L353.727 30.8242H353.469L349.981 44.1293H340.356Z" fill="#F9F9FA"/>
</svg>
