<svg width="172" height="65" viewBox="0 0 172 65" fill="none" xmlns="http://www.w3.org/2000/svg">
<path d="M21.0196 15.9277H29.9983V37.1149C29.9983 39.6341 29.3954 41.8142 28.1896 43.6552C26.9946 45.4854 25.3259 46.9011 23.1835 47.9023C21.0411 48.8928 18.5542 49.388 15.7228 49.388C12.8698 49.388 10.3722 48.8928 8.22975 47.9023C6.08735 46.9011 4.41864 45.4854 3.22363 43.6552C2.03939 41.8142 1.44727 39.6341 1.44727 37.1149V15.9277H10.426V36.3398C10.426 37.3625 10.6521 38.2776 11.1042 39.0851C11.5564 39.8818 12.1808 40.5062 12.9775 40.9583C13.7849 41.4105 14.7 41.6366 15.7228 41.6366C16.7563 41.6366 17.6714 41.4105 18.4681 40.9583C19.2648 40.5062 19.8892 39.8818 20.3413 39.0851C20.7935 38.2776 21.0196 37.3625 21.0196 36.3398V15.9277Z" fill="#F9F9FA"/>
<path d="M34.3948 58.3021V24.1959H43.2443V28.5238H43.4381C43.7611 27.684 44.2348 26.9143 44.8592 26.2145C45.4836 25.504 46.2588 24.9388 47.1846 24.5189C48.1105 24.0883 49.1871 23.8729 50.4144 23.8729C52.0508 23.8729 53.6065 24.309 55.0814 25.181C56.5671 26.053 57.7729 27.4257 58.6987 29.2989C59.6353 31.1722 60.1037 33.6053 60.1037 36.5982C60.1037 39.4619 59.6569 41.8358 58.7633 43.7198C57.8805 45.6038 56.6963 47.0087 55.2106 47.9346C53.7357 48.8605 52.1154 49.3234 50.3498 49.3234C49.1871 49.3234 48.1482 49.135 47.2331 48.7582C46.3288 48.3706 45.5536 47.8485 44.9077 47.1918C44.2725 46.5243 43.7826 45.7707 43.4381 44.9309H43.3089V58.3021H34.3948ZM43.1152 36.5982C43.1152 37.8039 43.2713 38.8482 43.5835 39.731C43.9064 40.6031 44.3586 41.2813 44.94 41.7658C45.5321 42.2395 46.2372 42.4763 47.0555 42.4763C47.8737 42.4763 48.5681 42.2449 49.1386 41.7819C49.72 41.3082 50.1614 40.6354 50.4628 39.7633C50.7751 38.8805 50.9312 37.8255 50.9312 36.5982C50.9312 35.3709 50.7751 34.3212 50.4628 33.4492C50.1614 32.5664 49.72 31.8935 49.1386 31.4306C48.5681 30.9569 47.8737 30.72 47.0555 30.72C46.2372 30.72 45.5321 30.9569 44.94 31.4306C44.3586 31.8935 43.9064 32.5664 43.5835 33.4492C43.2713 34.3212 43.1152 35.3709 43.1152 36.5982Z" fill="#F9F9FA"/>
<path d="M86.511 32.2703H78.3074C78.2643 31.7643 78.0867 31.3283 77.7745 30.9622C77.4623 30.5962 77.0585 30.3163 76.5633 30.1225C76.0788 29.918 75.5405 29.8157 74.9484 29.8157C74.1841 29.8157 73.5273 29.9556 72.9783 30.2356C72.4292 30.5155 72.1601 30.9138 72.1708 31.4306C72.1601 31.7966 72.3162 32.1357 72.6392 32.4479C72.9729 32.7601 73.6135 33.0024 74.5609 33.1746L79.5993 34.079C82.14 34.5419 84.0294 35.3224 85.2675 36.4205C86.5163 37.5079 87.1461 38.9667 87.1569 40.7969C87.1461 42.5625 86.6186 44.0966 85.5743 45.3993C84.5408 46.6912 83.1251 47.6924 81.3272 48.4029C79.5401 49.1027 77.4999 49.4526 75.2068 49.4526C71.4172 49.4526 68.4512 48.6775 66.3088 47.1272C64.1772 45.5769 62.9876 43.5314 62.74 40.9906H71.5895C71.7079 41.7765 72.0955 42.3848 72.7522 42.8154C73.4197 43.2353 74.2594 43.4453 75.2714 43.4453C76.0896 43.4453 76.7625 43.3053 77.29 43.0254C77.8283 42.7455 78.1028 42.3471 78.1136 41.8304C78.1028 41.3567 77.866 40.9799 77.403 40.7C76.9509 40.42 76.2403 40.194 75.2714 40.0217L70.8789 39.2466C68.349 38.8052 66.4542 37.9654 65.1946 36.7274C63.935 35.4893 63.3105 33.8959 63.3213 31.9473C63.3105 30.2248 63.7627 28.766 64.6778 27.571C65.6037 26.3652 66.9225 25.4501 68.6343 24.8257C70.3568 24.1905 72.3969 23.8729 74.7546 23.8729C78.3397 23.8729 81.1657 24.6158 83.2327 26.1015C85.3106 27.5872 86.4033 29.6434 86.511 32.2703Z" fill="#F9F9FA"/>
<path d="M99.5779 21.1621V49.1299H91.1348V21.1621H99.5779Z" fill="#F9F9FA"/>
<path d="M111.715 21.1621V49.1299H103.271V21.1621H111.715Z" fill="#F9F9FA"/>
<path fill-rule="evenodd" clip-rule="evenodd" d="M100.105 11.0691C100.105 8.44614 97.9791 6.31982 95.3562 6.31982C92.7332 6.31982 90.6069 8.44614 90.6069 11.0691C90.6069 13.692 92.7332 15.8183 95.3562 15.8183C97.9791 15.8183 100.105 13.692 100.105 11.0691ZM95.294 12.5928C96.4533 12.5928 97.4826 12.0361 98.129 11.1754C97.4826 10.3148 96.4533 9.75806 95.294 9.75806C94.1347 9.75806 93.1054 10.3148 92.459 11.1754C93.1054 12.0361 94.1347 12.5928 95.294 12.5928Z" fill="#F9F9FA"/>
<path d="M94.5768 10.2871C95.0151 10.2871 95.3704 10.6424 95.3704 11.0807V11.0807C95.3704 11.519 95.0151 11.8743 94.5768 11.8743V11.8743C94.1385 11.8743 93.7832 11.519 93.7832 11.0807V11.0807C93.7832 10.6424 94.1385 10.2871 94.5768 10.2871V10.2871Z" fill="#F9F9FA"/>
<path fill-rule="evenodd" clip-rule="evenodd" d="M112.243 11.0691C112.243 8.44614 110.116 6.31982 107.493 6.31982C104.87 6.31982 102.744 8.44614 102.744 11.0691C102.744 13.692 104.87 15.8183 107.493 15.8183C110.116 15.8183 112.243 13.692 112.243 11.0691ZM107.431 12.5928C108.59 12.5928 109.619 12.0361 110.266 11.1754C109.619 10.3148 108.59 9.75806 107.431 9.75806C106.271 9.75806 105.242 10.3148 104.596 11.1754C105.242 12.0361 106.271 12.5928 107.431 12.5928Z" fill="#F9F9FA"/>
<path d="M106.714 10.2871C107.153 10.2871 107.508 10.6424 107.508 11.0807V11.0807C107.508 11.519 107.153 11.8743 106.714 11.8743V11.8743C106.276 11.8743 105.921 11.519 105.921 11.0807V11.0807C105.921 10.6424 106.276 10.2871 106.714 10.2871V10.2871Z" fill="#F9F9FA"/>
<path d="M126.138 49.3229C124.372 49.3229 122.746 48.86 121.261 47.9341C119.786 47.0083 118.602 45.6033 117.708 43.7193C116.825 41.8353 116.384 39.4614 116.384 36.5977C116.384 33.6048 116.847 31.1717 117.773 29.2984C118.709 27.4252 119.915 26.0525 121.39 25.1805C122.876 24.3085 124.437 23.8724 126.073 23.8724C127.3 23.8724 128.377 24.0878 129.303 24.5184C130.229 24.9383 131.004 25.5035 131.628 26.214C132.253 26.9138 132.726 27.6836 133.049 28.5233H133.179V15.9272H142.093V48.9999H133.243V44.9305H133.049C132.705 45.7702 132.21 46.5238 131.564 47.1913C130.928 47.848 130.153 48.3701 129.238 48.7577C128.334 49.1345 127.3 49.3229 126.138 49.3229ZM129.432 42.4758C130.25 42.4758 130.95 42.239 131.531 41.7653C132.123 41.2808 132.576 40.6026 132.888 39.7305C133.211 38.8477 133.372 37.8035 133.372 36.5977C133.372 35.3704 133.211 34.3207 132.888 33.4487C132.576 32.5659 132.123 31.893 131.531 31.4301C130.95 30.9564 130.25 30.7195 129.432 30.7195C128.614 30.7195 127.914 30.9564 127.333 31.4301C126.762 31.893 126.321 32.5659 126.008 33.4487C125.707 34.3207 125.556 35.3704 125.556 36.5977C125.556 37.825 125.707 38.88 126.008 39.7628C126.321 40.6349 126.762 41.3077 127.333 41.7814C127.914 42.2444 128.614 42.4758 129.432 42.4758Z" fill="#F9F9FA"/>
<path d="M158.354 49.4521C155.706 49.4521 153.424 48.9461 151.507 47.9341C149.602 46.9114 148.132 45.4472 147.099 43.5417C146.076 41.6253 145.565 39.3322 145.565 36.6623C145.565 34.1 146.081 31.8607 147.115 29.9444C148.148 28.0281 149.607 26.537 151.491 25.4712C153.375 24.4054 155.598 23.8724 158.161 23.8724C160.034 23.8724 161.73 24.1631 163.248 24.7445C164.766 25.3258 166.063 26.171 167.139 27.2798C168.216 28.378 169.045 29.7129 169.626 31.2847C170.208 32.8565 170.498 34.6275 170.498 36.5977V38.6647H148.342V33.7555H162.295C162.284 33.045 162.101 32.4205 161.746 31.8822C161.401 31.3332 160.933 30.9079 160.341 30.6065C159.759 30.2943 159.097 30.1382 158.354 30.1382C157.633 30.1382 156.971 30.2943 156.368 30.6065C155.765 30.9079 155.281 31.3278 154.915 31.8661C154.559 32.4044 154.371 33.0342 154.35 33.7555V39.0523C154.35 39.849 154.516 40.5595 154.85 41.1839C155.184 41.8084 155.663 42.2982 156.287 42.6535C156.912 43.0087 157.665 43.1864 158.548 43.1864C159.162 43.1864 159.722 43.1003 160.228 42.928C160.744 42.7557 161.186 42.5081 161.552 42.1852C161.918 41.8514 162.187 41.4531 162.359 40.9902H170.498C170.218 42.7127 169.556 44.2091 168.512 45.4795C167.468 46.7391 166.084 47.7188 164.362 48.4186C162.65 49.1076 160.648 49.4521 158.354 49.4521Z" fill="#F9F9FA"/>
</svg>
