<svg width="321" height="108" viewBox="0 0 321 108" fill="none" xmlns="http://www.w3.org/2000/svg">
<path d="M135.577 14.374L135.801 13.0771H151.844L151.62 14.374H144.297L140.72 35.9736H139.322L142.9 14.374H135.577Z" fill="#3C3F44"/>
<path d="M155.863 24.8384L154.018 35.9736H152.654L156.456 13.0771H157.82L156.433 21.518H156.567C157.104 20.6236 157.861 19.9118 158.837 19.3826C159.813 18.846 160.924 18.5777 162.169 18.5777C163.324 18.5777 164.3 18.8236 165.098 19.3155C165.895 19.8 166.465 20.4969 166.808 21.4062C167.151 22.308 167.218 23.3888 167.01 24.6484L165.12 35.9736H163.767L165.646 24.7043C165.884 23.236 165.649 22.0584 164.941 21.1714C164.241 20.2845 163.179 19.841 161.755 19.841C160.786 19.841 159.884 20.0497 159.049 20.4671C158.222 20.8845 157.525 21.4695 156.959 22.2223C156.4 22.9677 156.035 23.8397 155.863 24.8384Z" fill="#3C3F44"/>
<path d="M170.171 42.4133C169.828 42.4133 169.496 42.376 169.176 42.3015C168.863 42.2269 168.579 42.13 168.326 42.0108L168.918 40.8145C169.559 41.0829 170.167 41.1723 170.741 41.0829C171.322 41.0009 171.866 40.7288 172.373 40.2667C172.887 39.8046 173.372 39.1487 173.826 38.2991L174.967 36.1525L171.613 18.8013H173.01L175.895 34.2296H176.018L184.034 18.8013H185.565L174.978 38.8916C174.561 39.6742 174.099 40.3263 173.592 40.8481C173.085 41.3698 172.541 41.7611 171.959 42.022C171.386 42.2828 170.789 42.4133 170.171 42.4133Z" fill="#3C3F44"/>
<path d="M23.0196 56.9277H31.9983V78.1149C31.9983 80.6341 31.3954 82.8142 30.1896 84.6552C28.9946 86.4854 27.3259 87.9011 25.1835 88.9023C23.0411 89.8928 20.5542 90.388 17.7228 90.388C14.8698 90.388 12.3722 89.8928 10.2298 88.9023C8.08735 87.9011 6.41864 86.4854 5.22363 84.6552C4.03939 82.8142 3.44727 80.6341 3.44727 78.1149V56.9277H12.426V77.3398C12.426 78.3625 12.6521 79.2776 13.1042 80.0851C13.5564 80.8818 14.1808 81.5062 14.9775 81.9583C15.7849 82.4105 16.7 82.6366 17.7228 82.6366C18.7563 82.6366 19.6714 82.4105 20.4681 81.9583C21.2648 81.5062 21.8892 80.8818 22.3413 80.0851C22.7935 79.2776 23.0196 78.3625 23.0196 77.3398V56.9277Z" fill="#3C3F44"/>
<path d="M36.3948 99.3021V65.1959H45.2443V69.5238H45.4381C45.7611 68.684 46.2348 67.9143 46.8592 67.2145C47.4836 66.504 48.2588 65.9388 49.1846 65.5189C50.1105 65.0883 51.1871 64.8729 52.4144 64.8729C54.0508 64.8729 55.6065 65.309 57.0814 66.181C58.5671 67.053 59.7729 68.4257 60.6987 70.2989C61.6353 72.1722 62.1037 74.6053 62.1037 77.5982C62.1037 80.4619 61.6569 82.8358 60.7633 84.7198C59.8805 86.6038 58.6963 88.0087 57.2106 88.9346C55.7357 89.8605 54.1154 90.3234 52.3498 90.3234C51.1871 90.3234 50.1482 90.135 49.2331 89.7582C48.3288 89.3706 47.5536 88.8485 46.9077 88.1918C46.2725 87.5243 45.7826 86.7707 45.4381 85.9309H45.3089V99.3021H36.3948ZM45.1152 77.5982C45.1152 78.8039 45.2713 79.8482 45.5835 80.731C45.9064 81.6031 46.3586 82.2813 46.94 82.7658C47.5321 83.2395 48.2372 83.4763 49.0555 83.4763C49.8737 83.4763 50.5681 83.2449 51.1386 82.7819C51.72 82.3082 52.1614 81.6354 52.4628 80.7633C52.7751 79.8805 52.9312 78.8255 52.9312 77.5982C52.9312 76.3709 52.7751 75.3212 52.4628 74.4492C52.1614 73.5664 51.72 72.8935 51.1386 72.4306C50.5681 71.9569 49.8737 71.72 49.0555 71.72C48.2372 71.72 47.5321 71.9569 46.94 72.4306C46.3586 72.8935 45.9064 73.5664 45.5835 74.4492C45.2713 75.3212 45.1152 76.3709 45.1152 77.5982Z" fill="#3C3F44"/>
<path d="M88.511 73.2703H80.3074C80.2643 72.7643 80.0867 72.3283 79.7745 71.9622C79.4623 71.5962 79.0585 71.3163 78.5633 71.1225C78.0788 70.918 77.5405 70.8157 76.9484 70.8157C76.1841 70.8157 75.5273 70.9556 74.9783 71.2356C74.4292 71.5155 74.1601 71.9138 74.1708 72.4306C74.1601 72.7966 74.3162 73.1357 74.6392 73.4479C74.9729 73.7601 75.6135 74.0024 76.5609 74.1746L81.5993 75.079C84.14 75.5419 86.0294 76.3224 87.2675 77.4205C88.5163 78.5079 89.1461 79.9667 89.1569 81.7969C89.1461 83.5625 88.6186 85.0966 87.5743 86.3993C86.5408 87.6912 85.1251 88.6924 83.3272 89.4029C81.5401 90.1027 79.4999 90.4526 77.2068 90.4526C73.4172 90.4526 70.4512 89.6775 68.3088 88.1272C66.1772 86.5769 64.9876 84.5314 64.74 81.9906H73.5895C73.7079 82.7765 74.0955 83.3848 74.7522 83.8154C75.4197 84.2353 76.2594 84.4453 77.2714 84.4453C78.0896 84.4453 78.7625 84.3053 79.29 84.0254C79.8283 83.7455 80.1028 83.3471 80.1136 82.8304C80.1028 82.3567 79.866 81.9799 79.403 81.7C78.9509 81.42 78.2403 81.194 77.2714 81.0217L72.8789 80.2466C70.349 79.8052 68.4542 78.9654 67.1946 77.7274C65.935 76.4893 65.3105 74.8959 65.3213 72.9473C65.3105 71.2248 65.7627 69.766 66.6778 68.571C67.6037 67.3652 68.9225 66.4501 70.6343 65.8257C72.3568 65.1905 74.3969 64.8729 76.7546 64.8729C80.3397 64.8729 83.1657 65.6158 85.2327 67.1015C87.3106 68.5872 88.4033 70.6434 88.511 73.2703Z" fill="#3C3F44"/>
<path d="M101.578 62.1621V90.1299H93.1348V62.1621H101.578Z" fill="#3C3F44"/>
<path d="M113.715 62.1621V90.1299H105.271V62.1621H113.715Z" fill="#3C3F44"/>
<path fill-rule="evenodd" clip-rule="evenodd" d="M102.105 52.0696C102.105 49.4466 99.9791 47.3203 97.3562 47.3203C94.7332 47.3203 92.6069 49.4466 92.6069 52.0696C92.6069 54.6925 94.7332 56.8188 97.3562 56.8188C99.9791 56.8188 102.105 54.6925 102.105 52.0696ZM97.294 53.5933C98.4533 53.5933 99.4826 53.0366 100.129 52.1759C99.4826 51.3153 98.4533 50.7585 97.294 50.7585C96.1347 50.7585 95.1054 51.3153 94.459 52.1759C95.1054 53.0366 96.1347 53.5933 97.294 53.5933Z" fill="#3C3F44"/>
<path d="M96.5768 51.2881C97.0151 51.2881 97.3704 51.6434 97.3704 52.0817V52.0817C97.3704 52.52 97.0151 52.8753 96.5768 52.8753V52.8753C96.1385 52.8753 95.7832 52.52 95.7832 52.0817V52.0817C95.7832 51.6434 96.1385 51.2881 96.5768 51.2881V51.2881Z" fill="#3C3F44"/>
<path fill-rule="evenodd" clip-rule="evenodd" d="M114.243 52.0696C114.243 49.4466 112.116 47.3203 109.493 47.3203C106.87 47.3203 104.744 49.4466 104.744 52.0696C104.744 54.6925 106.87 56.8188 109.493 56.8188C112.116 56.8188 114.243 54.6925 114.243 52.0696ZM109.431 53.5933C110.59 53.5933 111.619 53.0366 112.266 52.1759C111.619 51.3153 110.59 50.7585 109.431 50.7585C108.271 50.7585 107.242 51.3153 106.596 52.1759C107.242 53.0366 108.271 53.5933 109.431 53.5933Z" fill="#3C3F44"/>
<path d="M108.714 51.2881C109.153 51.2881 109.508 51.6434 109.508 52.0817V52.0817C109.508 52.52 109.153 52.8753 108.714 52.8753V52.8753C108.276 52.8753 107.921 52.52 107.921 52.0817V52.0817C107.921 51.6434 108.276 51.2881 108.714 51.2881V51.2881Z" fill="#3C3F44"/>
<path d="M128.138 90.3234C126.372 90.3234 124.746 89.8605 123.261 88.9346C121.786 88.0087 120.602 86.6038 119.708 84.7198C118.825 82.8358 118.384 80.4619 118.384 77.5982C118.384 74.6053 118.847 72.1722 119.773 70.2989C120.709 68.4257 121.915 67.053 123.39 66.181C124.876 65.309 126.437 64.8729 128.073 64.8729C129.3 64.8729 130.377 65.0883 131.303 65.5189C132.229 65.9388 133.004 66.504 133.628 67.2145C134.253 67.9143 134.726 68.684 135.049 69.5238H135.179V56.9277H144.093V90.0004H135.243V85.9309H135.049C134.705 86.7707 134.21 87.5243 133.564 88.1918C132.928 88.8485 132.153 89.3706 131.238 89.7582C130.334 90.135 129.3 90.3234 128.138 90.3234ZM131.432 83.4763C132.25 83.4763 132.95 83.2395 133.531 82.7658C134.123 82.2813 134.576 81.6031 134.888 80.731C135.211 79.8482 135.372 78.8039 135.372 77.5982C135.372 76.3709 135.211 75.3212 134.888 74.4492C134.576 73.5664 134.123 72.8935 133.531 72.4306C132.95 71.9569 132.25 71.72 131.432 71.72C130.614 71.72 129.914 71.9569 129.333 72.4306C128.762 72.8935 128.321 73.5664 128.008 74.4492C127.707 75.3212 127.556 76.3709 127.556 77.5982C127.556 78.8255 127.707 79.8805 128.008 80.7633C128.321 81.6354 128.762 82.3082 129.333 82.7819C129.914 83.2449 130.614 83.4763 131.432 83.4763Z" fill="#3C3F44"/>
<path d="M160.354 90.4526C157.706 90.4526 155.424 89.9466 153.507 88.9346C151.602 87.9119 150.132 86.4477 149.099 84.5421C148.076 82.6258 147.565 80.3327 147.565 77.6628C147.565 75.1005 148.081 72.8612 149.115 70.9449C150.148 69.0286 151.607 67.5375 153.491 66.4717C155.375 65.4058 157.598 64.8729 160.161 64.8729C162.034 64.8729 163.73 65.1636 165.248 65.745C166.766 66.3263 168.063 67.1714 169.139 68.2803C170.216 69.3784 171.045 70.7134 171.626 72.2852C172.208 73.857 172.498 75.628 172.498 77.5982V79.6652H150.342V74.756H164.295C164.284 74.0454 164.101 73.421 163.746 72.8827C163.401 72.3337 162.933 71.9084 162.341 71.607C161.759 71.2948 161.097 71.1387 160.354 71.1387C159.633 71.1387 158.971 71.2948 158.368 71.607C157.765 71.9084 157.281 72.3283 156.915 72.8666C156.559 73.4049 156.371 74.0347 156.35 74.756V80.0528C156.35 80.8495 156.516 81.56 156.85 82.1844C157.184 82.8088 157.663 83.2987 158.287 83.654C158.912 84.0092 159.665 84.1869 160.548 84.1869C161.162 84.1869 161.722 84.1007 162.228 83.9285C162.744 83.7562 163.186 83.5086 163.552 83.1856C163.918 82.8519 164.187 82.4536 164.359 81.9906H172.498C172.218 83.7132 171.556 85.2096 170.512 86.48C169.468 87.7396 168.084 88.7193 166.362 89.4191C164.65 90.1081 162.648 90.4526 160.354 90.4526Z" fill="#3C3F44"/>
<path d="M301.81 76.1203V90.0728H292.896V65.2683H301.357V69.9837H301.616C302.154 68.4119 303.102 67.1792 304.458 66.2857C305.825 65.3921 307.419 64.9453 309.238 64.9453C310.993 64.9453 312.516 65.349 313.808 66.1565C315.111 66.9531 316.117 68.0513 316.828 69.4508C317.549 70.8504 317.905 72.4491 317.894 74.247V90.0728H308.98V76.1203C308.99 74.893 308.678 73.9294 308.043 73.2296C307.419 72.5299 306.547 72.18 305.427 72.18C304.695 72.18 304.054 72.3415 303.505 72.6644C302.967 72.9766 302.552 73.4288 302.262 74.0209C301.971 74.6023 301.82 75.3021 301.81 76.1203Z" fill="#3C3F44"/>
<path d="M203.173 90.0727H190.447V57H203.043C206.445 57 209.384 57.6621 211.861 58.9863C214.347 60.2997 216.264 62.1945 217.61 64.6707C218.966 67.136 219.644 70.0913 219.644 73.5363C219.644 76.9814 218.971 79.942 217.626 82.4182C216.28 84.8836 214.374 86.7783 211.909 88.1025C209.444 89.416 206.531 90.0727 203.173 90.0727ZM199.426 82.4505H202.85C204.486 82.4505 205.88 82.1867 207.032 81.6592C208.195 81.1317 209.078 80.2219 209.68 78.93C210.294 77.6381 210.601 75.8402 210.601 73.5363C210.601 71.2325 210.289 69.4346 209.664 68.1427C209.051 66.8508 208.146 65.941 206.951 65.4135C205.767 64.886 204.314 64.6222 202.591 64.6222H199.426V82.4505Z" fill="#3C3F44"/>
<path d="M235.878 90.5249C233.186 90.5249 230.882 89.992 228.966 88.9261C227.05 87.8495 225.58 86.3531 224.558 84.4368C223.535 82.5097 223.023 80.2758 223.023 77.735C223.023 75.1943 223.535 72.9658 224.558 71.0494C225.58 69.1223 227.05 67.6259 228.966 66.5601C230.882 65.4835 233.186 64.9452 235.878 64.9452C238.569 64.9452 240.873 65.4835 242.789 66.5601C244.706 67.6259 246.175 69.1223 247.198 71.0494C248.221 72.9658 248.732 75.1943 248.732 77.735C248.732 80.2758 248.221 82.5097 247.198 84.4368C246.175 86.3531 244.706 87.8495 242.789 88.9261C240.873 89.992 238.569 90.5249 235.878 90.5249ZM235.942 83.9362C236.696 83.9362 237.347 83.6832 237.896 83.1772C238.445 82.6712 238.871 81.9499 239.172 81.0132C239.474 80.0766 239.624 78.9623 239.624 77.6704C239.624 76.3678 239.474 75.2535 239.172 74.3276C238.871 73.391 238.445 72.6697 237.896 72.1637C237.347 71.6577 236.696 71.4047 235.942 71.4047C235.146 71.4047 234.462 71.6577 233.892 72.1637C233.321 72.6697 232.885 73.391 232.583 74.3276C232.282 75.2535 232.131 76.3678 232.131 77.6704C232.131 78.9623 232.282 80.0766 232.583 81.0132C232.885 81.9499 233.321 82.6712 233.892 83.1772C234.462 83.6832 235.146 83.9362 235.942 83.9362Z" fill="#3C3F44"/>
<path fill-rule="evenodd" clip-rule="evenodd" d="M257.511 100.161C257.511 102.784 259.638 104.91 262.261 104.91C264.883 104.91 267.01 102.784 267.01 100.161C267.01 97.538 264.883 95.4117 262.261 95.4117C259.638 95.4117 257.511 97.538 257.511 100.161ZM262.322 98.6369C261.163 98.6369 260.134 99.1937 259.487 100.054C260.134 100.915 261.163 101.472 262.322 101.472C263.482 101.472 264.511 100.915 265.157 100.054C264.511 99.1937 263.482 98.6369 262.322 98.6369Z" fill="#3C3F44"/>
<path d="M263.039 100.942C262.601 100.942 262.246 100.587 262.246 100.149V100.149C262.246 99.7105 262.601 99.3552 263.039 99.3552V99.3552C263.478 99.3552 263.833 99.7105 263.833 100.149V100.149C263.833 100.587 263.478 100.942 263.039 100.942V100.942Z" fill="#3C3F44"/>
<path fill-rule="evenodd" clip-rule="evenodd" d="M274.397 100.161C274.397 102.784 276.523 104.91 279.146 104.91C281.769 104.91 283.896 102.784 283.896 100.161C283.896 97.538 281.769 95.4117 279.146 95.4117C276.523 95.4117 274.397 97.538 274.397 100.161ZM279.209 98.6369C278.05 98.6369 277.02 99.1937 276.374 100.054C277.02 100.915 278.05 101.472 279.209 101.472C280.368 101.472 281.397 100.915 282.044 100.054C281.397 99.1937 280.368 98.6369 279.209 98.6369Z" fill="#3C3F44"/>
<path d="M279.926 100.942C279.488 100.942 279.133 100.587 279.133 100.149V100.149C279.133 99.7105 279.488 99.3552 279.926 99.3552V99.3552C280.364 99.3552 280.72 99.7105 280.72 100.149V100.149C280.72 100.587 280.364 100.942 279.926 100.942V100.942Z" fill="#3C3F44"/>
<path d="M257.498 90.202L251.297 65.4004H260.211L263.053 80.5139H263.247L266.412 65.4004H275.068L278.362 80.3847H278.556L281.269 65.4004H290.183L283.982 90.202H274.357L270.869 76.897H270.611L267.123 90.202H257.498Z" fill="#3C3F44"/>
</svg>
