<svg width="328" height="112" viewBox="0 0 328 112" fill="none" xmlns="http://www.w3.org/2000/svg">
<path d="M304.81 80.1203V94.0728H295.896V69.2683H304.357V73.9837H304.616C305.154 72.4119 306.102 71.1792 307.458 70.2857C308.825 69.3921 310.419 68.9453 312.238 68.9453C313.993 68.9453 315.516 69.349 316.808 70.1565C318.111 70.9531 319.117 72.0513 319.828 73.4508C320.549 74.8504 320.905 76.4491 320.894 78.247V94.0728H311.98V80.1203C311.99 78.893 311.678 77.9294 311.043 77.2296C310.419 76.5299 309.547 76.18 308.427 76.18C307.695 76.18 307.054 76.3415 306.505 76.6644C305.967 76.9766 305.552 77.4288 305.262 78.0209C304.971 78.6023 304.82 79.3021 304.81 80.1203Z" fill="#F9F9FA"/>
<path d="M206.173 94.0727H193.447V61H206.043C209.445 61 212.384 61.6621 214.861 62.9863C217.347 64.2997 219.264 66.1945 220.61 68.6707C221.966 71.136 222.644 74.0913 222.644 77.5363C222.644 80.9814 221.971 83.942 220.626 86.4182C219.28 88.8836 217.374 90.7783 214.909 92.1025C212.444 93.416 209.531 94.0727 206.173 94.0727ZM202.426 86.4505H205.85C207.486 86.4505 208.88 86.1867 210.032 85.6592C211.195 85.1317 212.078 84.2219 212.68 82.93C213.294 81.6381 213.601 79.8402 213.601 77.5363C213.601 75.2325 213.289 73.4346 212.664 72.1427C212.051 70.8508 211.146 69.941 209.951 69.4135C208.767 68.886 207.314 68.6222 205.591 68.6222H202.426V86.4505Z" fill="#F9F9FA"/>
<path d="M238.878 94.5249C236.186 94.5249 233.882 93.992 231.966 92.9261C230.05 91.8495 228.58 90.3531 227.558 88.4368C226.535 86.5097 226.023 84.2758 226.023 81.735C226.023 79.1943 226.535 76.9658 227.558 75.0494C228.58 73.1223 230.05 71.6259 231.966 70.5601C233.882 69.4835 236.186 68.9452 238.878 68.9452C241.569 68.9452 243.873 69.4835 245.789 70.5601C247.706 71.6259 249.175 73.1223 250.198 75.0494C251.221 76.9658 251.732 79.1943 251.732 81.735C251.732 84.2758 251.221 86.5097 250.198 88.4368C249.175 90.3531 247.706 91.8495 245.789 92.9261C243.873 93.992 241.569 94.5249 238.878 94.5249ZM238.942 87.9362C239.696 87.9362 240.347 87.6832 240.896 87.1772C241.445 86.6712 241.871 85.9499 242.172 85.0132C242.474 84.0766 242.624 82.9623 242.624 81.6704C242.624 80.3678 242.474 79.2535 242.172 78.3276C241.871 77.391 241.445 76.6697 240.896 76.1637C240.347 75.6577 239.696 75.4047 238.942 75.4047C238.146 75.4047 237.462 75.6577 236.892 76.1637C236.321 76.6697 235.885 77.391 235.583 78.3276C235.282 79.2535 235.131 80.3678 235.131 81.6704C235.131 82.9623 235.282 84.0766 235.583 85.0132C235.885 85.9499 236.321 86.6712 236.892 87.1772C237.462 87.6832 238.146 87.9362 238.942 87.9362Z" fill="#F9F9FA"/>
<path fill-rule="evenodd" clip-rule="evenodd" d="M260.511 104.161C260.511 106.784 262.638 108.911 265.261 108.911C267.883 108.911 270.01 106.784 270.01 104.161C270.01 101.538 267.883 99.4121 265.261 99.4121C262.638 99.4121 260.511 101.538 260.511 104.161ZM265.322 102.637C264.163 102.637 263.134 103.194 262.487 104.055C263.134 104.915 264.163 105.472 265.322 105.472C266.482 105.472 267.511 104.915 268.157 104.055C267.511 103.194 266.482 102.637 265.322 102.637Z" fill="#F9F9FA"/>
<path d="M266.039 104.943C265.601 104.943 265.246 104.588 265.246 104.149V104.149C265.246 103.711 265.601 103.356 266.039 103.356V103.356C266.478 103.356 266.833 103.711 266.833 104.149V104.149C266.833 104.588 266.478 104.943 266.039 104.943V104.943Z" fill="#F9F9FA"/>
<path fill-rule="evenodd" clip-rule="evenodd" d="M277.397 104.161C277.397 106.784 279.523 108.911 282.146 108.911C284.769 108.911 286.896 106.784 286.896 104.161C286.896 101.538 284.769 99.4121 282.146 99.4121C279.523 99.4121 277.397 101.538 277.397 104.161ZM282.209 102.637C281.05 102.637 280.02 103.194 279.374 104.055C280.02 104.915 281.05 105.472 282.209 105.472C283.368 105.472 284.397 104.915 285.044 104.055C284.397 103.194 283.368 102.637 282.209 102.637Z" fill="#F9F9FA"/>
<path d="M282.926 104.943C282.488 104.943 282.133 104.588 282.133 104.149V104.149C282.133 103.711 282.488 103.356 282.926 103.356V103.356C283.364 103.356 283.72 103.711 283.72 104.149V104.149C283.72 104.588 283.364 104.943 282.926 104.943V104.943Z" fill="#F9F9FA"/>
<path d="M260.498 94.202L254.297 69.4004H263.211L266.053 84.5139H266.247L269.412 69.4004H278.068L281.362 84.3847H281.556L284.269 69.4004H293.183L286.982 94.202H277.357L273.869 80.897H273.611L270.123 94.202H260.498Z" fill="#F9F9FA"/>
<path d="M27.0196 60.9277H35.9983V82.1149C35.9983 84.6341 35.3954 86.8142 34.1896 88.6552C32.9946 90.4854 31.3259 91.9011 29.1835 92.9023C27.0411 93.8928 24.5542 94.388 21.7228 94.388C18.8698 94.388 16.3722 93.8928 14.2298 92.9023C12.0873 91.9011 10.4186 90.4854 9.22363 88.6552C8.03939 86.8142 7.44727 84.6341 7.44727 82.1149V60.9277H16.426V81.3398C16.426 82.3625 16.6521 83.2776 17.1042 84.0851C17.5564 84.8818 18.1808 85.5062 18.9775 85.9583C19.7849 86.4105 20.7 86.6366 21.7228 86.6366C22.7563 86.6366 23.6714 86.4105 24.4681 85.9583C25.2648 85.5062 25.8892 84.8818 26.3413 84.0851C26.7935 83.2776 27.0196 82.3625 27.0196 81.3398V60.9277Z" fill="#F9F9FA"/>
<path d="M40.3948 103.302V69.1959H49.2443V73.5238H49.4381C49.7611 72.684 50.2348 71.9143 50.8592 71.2145C51.4836 70.504 52.2588 69.9388 53.1846 69.5189C54.1105 69.0883 55.1871 68.8729 56.4144 68.8729C58.0508 68.8729 59.6065 69.309 61.0814 70.181C62.5671 71.053 63.7729 72.4257 64.6987 74.2989C65.6353 76.1722 66.1037 78.6053 66.1037 81.5982C66.1037 84.4619 65.6569 86.8358 64.7633 88.7198C63.8805 90.6038 62.6963 92.0087 61.2106 92.9346C59.7357 93.8605 58.1154 94.3234 56.3498 94.3234C55.1871 94.3234 54.1482 94.135 53.2331 93.7582C52.3288 93.3706 51.5536 92.8485 50.9077 92.1918C50.2725 91.5243 49.7826 90.7707 49.4381 89.9309H49.3089V103.302H40.3948ZM49.1152 81.5982C49.1152 82.8039 49.2713 83.8482 49.5835 84.731C49.9064 85.6031 50.3586 86.2813 50.94 86.7658C51.5321 87.2395 52.2372 87.4763 53.0555 87.4763C53.8737 87.4763 54.5681 87.2449 55.1386 86.7819C55.72 86.3082 56.1614 85.6354 56.4628 84.7633C56.7751 83.8805 56.9312 82.8255 56.9312 81.5982C56.9312 80.3709 56.7751 79.3212 56.4628 78.4492C56.1614 77.5664 55.72 76.8935 55.1386 76.4306C54.5681 75.9569 53.8737 75.72 53.0555 75.72C52.2372 75.72 51.5321 75.9569 50.94 76.4306C50.3586 76.8935 49.9064 77.5664 49.5835 78.4492C49.2713 79.3212 49.1152 80.3709 49.1152 81.5982Z" fill="#F9F9FA"/>
<path d="M92.511 77.2703H84.3074C84.2643 76.7643 84.0867 76.3283 83.7745 75.9622C83.4623 75.5962 83.0585 75.3163 82.5633 75.1225C82.0788 74.918 81.5405 74.8157 80.9484 74.8157C80.1841 74.8157 79.5273 74.9556 78.9783 75.2356C78.4292 75.5155 78.1601 75.9138 78.1708 76.4306C78.1601 76.7966 78.3162 77.1357 78.6392 77.4479C78.9729 77.7601 79.6135 78.0024 80.5609 78.1746L85.5993 79.079C88.14 79.5419 90.0294 80.3224 91.2675 81.4205C92.5163 82.5079 93.1461 83.9667 93.1569 85.7969C93.1461 87.5625 92.6186 89.0966 91.5743 90.3993C90.5408 91.6912 89.1251 92.6924 87.3272 93.4029C85.5401 94.1027 83.4999 94.4526 81.2068 94.4526C77.4172 94.4526 74.4512 93.6775 72.3088 92.1272C70.1772 90.5769 68.9876 88.5314 68.74 85.9906H77.5895C77.7079 86.7765 78.0955 87.3848 78.7522 87.8154C79.4197 88.2353 80.2594 88.4453 81.2714 88.4453C82.0896 88.4453 82.7625 88.3053 83.29 88.0254C83.8283 87.7455 84.1028 87.3471 84.1136 86.8304C84.1028 86.3567 83.866 85.9799 83.403 85.7C82.9509 85.42 82.2403 85.194 81.2714 85.0217L76.8789 84.2466C74.349 83.8052 72.4542 82.9654 71.1946 81.7274C69.935 80.4893 69.3105 78.8959 69.3213 76.9473C69.3105 75.2248 69.7627 73.766 70.6778 72.571C71.6037 71.3652 72.9225 70.4501 74.6343 69.8257C76.3568 69.1905 78.3969 68.8729 80.7546 68.8729C84.3397 68.8729 87.1657 69.6158 89.2327 71.1015C91.3106 72.5872 92.4033 74.6434 92.511 77.2703Z" fill="#F9F9FA"/>
<path d="M105.578 66.1621V94.1299H97.1348V66.1621H105.578Z" fill="#F9F9FA"/>
<path d="M117.715 66.1621V94.1299H109.271V66.1621H117.715Z" fill="#F9F9FA"/>
<path fill-rule="evenodd" clip-rule="evenodd" d="M106.105 56.0691C106.105 53.4461 103.979 51.3198 101.356 51.3198C98.7332 51.3198 96.6069 53.4461 96.6069 56.0691C96.6069 58.692 98.7332 60.8183 101.356 60.8183C103.979 60.8183 106.105 58.692 106.105 56.0691ZM101.294 57.5928C102.453 57.5928 103.483 57.0361 104.129 56.1754C103.483 55.3148 102.453 54.7581 101.294 54.7581C100.135 54.7581 99.1054 55.3148 98.459 56.1754C99.1054 57.0361 100.135 57.5928 101.294 57.5928Z" fill="#F9F9FA"/>
<path d="M100.577 55.2871C101.015 55.2871 101.37 55.6424 101.37 56.0807V56.0807C101.37 56.519 101.015 56.8743 100.577 56.8743V56.8743C100.139 56.8743 99.7832 56.519 99.7832 56.0807V56.0807C99.7832 55.6424 100.139 55.2871 100.577 55.2871V55.2871Z" fill="#F9F9FA"/>
<path fill-rule="evenodd" clip-rule="evenodd" d="M118.243 56.0691C118.243 53.4461 116.116 51.3198 113.493 51.3198C110.87 51.3198 108.744 53.4461 108.744 56.0691C108.744 58.692 110.87 60.8183 113.493 60.8183C116.116 60.8183 118.243 58.692 118.243 56.0691ZM113.431 57.5928C114.59 57.5928 115.619 57.0361 116.266 56.1754C115.619 55.3148 114.59 54.7581 113.431 54.7581C112.271 54.7581 111.242 55.3148 110.596 56.1754C111.242 57.0361 112.271 57.5928 113.431 57.5928Z" fill="#F9F9FA"/>
<path d="M112.714 55.2871C113.153 55.2871 113.508 55.6424 113.508 56.0807V56.0807C113.508 56.519 113.153 56.8743 112.714 56.8743V56.8743C112.276 56.8743 111.921 56.519 111.921 56.0807V56.0807C111.921 55.6424 112.276 55.2871 112.714 55.2871V55.2871Z" fill="#F9F9FA"/>
<path d="M132.138 94.3229C130.372 94.3229 128.746 93.86 127.261 92.9341C125.786 92.0083 124.602 90.6033 123.708 88.7193C122.825 86.8353 122.384 84.4614 122.384 81.5977C122.384 78.6048 122.847 76.1717 123.773 74.2984C124.709 72.4252 125.915 71.0525 127.39 70.1805C128.876 69.3085 130.437 68.8724 132.073 68.8724C133.3 68.8724 134.377 69.0878 135.303 69.5184C136.229 69.9383 137.004 70.5035 137.628 71.214C138.253 71.9138 138.726 72.6836 139.049 73.5233H139.179V60.9272H148.093V93.9999H139.243V89.9305H139.049C138.705 90.7702 138.21 91.5238 137.564 92.1913C136.928 92.848 136.153 93.3701 135.238 93.7577C134.334 94.1345 133.3 94.3229 132.138 94.3229ZM135.432 87.4758C136.25 87.4758 136.95 87.239 137.531 86.7653C138.123 86.2808 138.576 85.6026 138.888 84.7305C139.211 83.8477 139.372 82.8035 139.372 81.5977C139.372 80.3704 139.211 79.3207 138.888 78.4487C138.576 77.5659 138.123 76.893 137.531 76.4301C136.95 75.9564 136.25 75.7195 135.432 75.7195C134.614 75.7195 133.914 75.9564 133.333 76.4301C132.762 76.893 132.321 77.5659 132.008 78.4487C131.707 79.3207 131.556 80.3704 131.556 81.5977C131.556 82.825 131.707 83.88 132.008 84.7628C132.321 85.6349 132.762 86.3077 133.333 86.7814C133.914 87.2444 134.614 87.4758 135.432 87.4758Z" fill="#F9F9FA"/>
<path d="M164.354 94.4521C161.706 94.4521 159.424 93.9461 157.507 92.9341C155.602 91.9114 154.132 90.4472 153.099 88.5417C152.076 86.6253 151.565 84.3322 151.565 81.6623C151.565 79.1 152.081 76.8607 153.115 74.9444C154.148 73.0281 155.607 71.537 157.491 70.4712C159.375 69.4054 161.598 68.8724 164.161 68.8724C166.034 68.8724 167.73 69.1631 169.248 69.7445C170.766 70.3258 172.063 71.171 173.139 72.2798C174.216 73.378 175.045 74.7129 175.626 76.2847C176.208 77.8565 176.498 79.6275 176.498 81.5977V83.6647H154.342V78.7555H168.295C168.284 78.045 168.101 77.4205 167.746 76.8822C167.401 76.3332 166.933 75.9079 166.341 75.6065C165.759 75.2943 165.097 75.1382 164.354 75.1382C163.633 75.1382 162.971 75.2943 162.368 75.6065C161.765 75.9079 161.281 76.3278 160.915 76.8661C160.559 77.4044 160.371 78.0342 160.35 78.7555V84.0523C160.35 84.849 160.516 85.5595 160.85 86.1839C161.184 86.8084 161.663 87.2982 162.287 87.6535C162.912 88.0087 163.665 88.1864 164.548 88.1864C165.162 88.1864 165.722 88.1003 166.228 87.928C166.744 87.7557 167.186 87.5081 167.552 87.1852C167.918 86.8514 168.187 86.4531 168.359 85.9902H176.498C176.218 87.7127 175.556 89.2091 174.512 90.4795C173.468 91.7391 172.084 92.7188 170.362 93.4186C168.65 94.1076 166.648 94.4521 164.354 94.4521Z" fill="#F9F9FA"/>
<path d="M8.38477 21.374L8.60836 20.0771H24.6516L24.428 21.374H17.1051L13.5275 42.9736H12.13L15.7076 21.374H8.38477Z" fill="#F9F9FA"/>
<path d="M28.6707 31.8384L26.826 42.9736H25.4621L29.2633 20.0771H30.6272L29.2409 28.518H29.3751C29.9117 27.6236 30.6682 26.9118 31.6446 26.3826C32.621 25.846 33.7315 25.5777 34.9762 25.5777C36.1315 25.5777 37.1079 25.8236 37.9054 26.3155C38.7029 26.8 39.273 27.4969 39.6159 28.4062C39.9587 29.308 40.0258 30.3888 39.8171 31.6484L37.9277 42.9736H36.5749L38.4532 31.7043C38.6917 30.236 38.4569 29.0584 37.7488 28.1714C37.0482 27.2845 35.9861 26.841 34.5626 26.841C33.5936 26.841 32.6918 27.0497 31.857 27.4671C31.0297 27.8845 30.3328 28.4695 29.7664 29.2223C29.2074 29.9677 28.8422 30.8397 28.6707 31.8384Z" fill="#F9F9FA"/>
<path d="M42.9782 49.4133C42.6354 49.4133 42.3037 49.376 41.9832 49.3015C41.6702 49.2269 41.387 49.13 41.1336 49.0108L41.7261 47.8145C42.3671 48.0829 42.9745 48.1723 43.5484 48.0829C44.1298 48.0009 44.6739 47.7288 45.1807 47.2667C45.695 46.8046 46.1794 46.1487 46.6341 45.2991L47.7744 43.1525L44.4205 25.8013H45.8179L48.7024 41.2296H48.8253L56.8413 25.8013H58.373L47.7856 45.8916C47.3682 46.6742 46.9061 47.3263 46.3993 47.8481C45.8925 48.3698 45.3484 48.7611 44.767 49.022C44.1931 49.2828 43.5969 49.4133 42.9782 49.4133Z" fill="#F9F9FA"/>
</svg>
