<svg width="130" height="65" viewBox="0 0 130 65" fill="none" xmlns="http://www.w3.org/2000/svg">
<path d="M112.81 35.1203V49.0728H103.896V24.2683H112.357V28.9837H112.616C113.154 27.4119 114.102 26.1792 115.458 25.2857C116.825 24.3921 118.419 23.9453 120.238 23.9453C121.993 23.9453 123.516 24.349 124.808 25.1565C126.111 25.9531 127.117 27.0513 127.828 28.4508C128.549 29.8504 128.905 31.4491 128.894 33.247V49.0728H119.98V35.1203C119.99 33.893 119.678 32.9294 119.043 32.2296C118.419 31.5299 117.547 31.18 116.427 31.18C115.695 31.18 115.054 31.3415 114.505 31.6644C113.967 31.9766 113.552 32.4288 113.262 33.0209C112.971 33.6023 112.82 34.3021 112.81 35.1203Z" fill="#F9F9FA"/>
<path d="M14.1725 49.0727H1.44727V16H14.0433C17.4453 16 20.3844 16.6621 22.8605 17.9863C25.3475 19.2997 27.2638 21.1945 28.6095 23.6707C29.966 26.136 30.6443 29.0913 30.6443 32.5363C30.6443 35.9814 29.9714 38.942 28.6257 41.4182C27.2799 43.8836 25.3744 45.7783 22.909 47.1025C20.4436 48.416 17.5314 49.0727 14.1725 49.0727ZM10.426 41.4505H13.8495C15.4859 41.4505 16.8801 41.1867 18.0321 40.6592C19.1948 40.1317 20.0776 39.2219 20.6805 37.93C21.2941 36.6381 21.6009 34.8402 21.6009 32.5363C21.6009 30.2325 21.2887 28.4346 20.6643 27.1427C20.0507 25.8508 19.1463 24.941 17.9513 24.4135C16.7671 23.886 15.3137 23.6222 13.5911 23.6222H10.426V41.4505Z" fill="#F9F9FA"/>
<path d="M46.8778 49.5249C44.1863 49.5249 41.8825 48.992 39.9661 47.9261C38.0498 46.8495 36.5803 45.3531 35.5575 43.4368C34.5348 41.5097 34.0234 39.2758 34.0234 36.735C34.0234 34.1943 34.5348 31.9658 35.5575 30.0494C36.5803 28.1223 38.0498 26.6259 39.9661 25.5601C41.8825 24.4835 44.1863 23.9452 46.8778 23.9452C49.5693 23.9452 51.8732 24.4835 53.7895 25.5601C55.7058 26.6259 57.1754 28.1223 58.1981 30.0494C59.2209 31.9658 59.7322 34.1943 59.7322 36.735C59.7322 39.2758 59.2209 41.5097 58.1981 43.4368C57.1754 45.3531 55.7058 46.8495 53.7895 47.9261C51.8732 48.992 49.5693 49.5249 46.8778 49.5249ZM46.9424 42.9362C47.696 42.9362 48.3474 42.6832 48.8964 42.1772C49.4455 41.6712 49.8707 40.9499 50.1722 40.0132C50.4736 39.0766 50.6243 37.9623 50.6243 36.6704C50.6243 35.3678 50.4736 34.2535 50.1722 33.3276C49.8707 32.391 49.4455 31.6697 48.8964 31.1637C48.3474 30.6577 47.696 30.4047 46.9424 30.4047C46.1457 30.4047 45.4621 30.6577 44.8915 31.1637C44.3209 31.6697 43.8849 32.391 43.5835 33.3276C43.282 34.2535 43.1313 35.3678 43.1313 36.6704C43.1313 37.9623 43.282 39.0766 43.5835 40.0132C43.8849 40.9499 44.3209 41.6712 44.8915 42.1772C45.4621 42.6832 46.1457 42.9362 46.9424 42.9362Z" fill="#F9F9FA"/>
<path fill-rule="evenodd" clip-rule="evenodd" d="M68.5113 59.1614C68.5113 61.7843 70.6376 63.9106 73.2605 63.9106C75.8835 63.9106 78.0098 61.7843 78.0098 59.1614C78.0098 56.5385 75.8835 54.4121 73.2605 54.4121C70.6376 54.4121 68.5113 56.5385 68.5113 59.1614ZM73.3224 57.6374C72.1631 57.6374 71.1339 58.1941 70.4874 59.0548C71.1339 59.9155 72.1631 60.4722 73.3224 60.4722C74.4817 60.4722 75.511 59.9155 76.1574 59.0548C75.511 58.1941 74.4817 57.6374 73.3224 57.6374Z" fill="#F9F9FA"/>
<path d="M74.0394 59.9429C73.6011 59.9429 73.2458 59.5876 73.2458 59.1493V59.1493C73.2458 58.711 73.6011 58.3557 74.0394 58.3557V58.3557C74.4777 58.3557 74.833 58.711 74.833 59.1493V59.1493C74.833 59.5876 74.4777 59.9429 74.0394 59.9429V59.9429Z" fill="#F9F9FA"/>
<path fill-rule="evenodd" clip-rule="evenodd" d="M85.397 59.1614C85.397 61.7843 87.5233 63.9106 90.1463 63.9106C92.7692 63.9106 94.8955 61.7843 94.8955 59.1614C94.8955 56.5385 92.7692 54.4121 90.1463 54.4121C87.5233 54.4121 85.397 56.5385 85.397 59.1614ZM90.2089 57.6374C89.0496 57.6374 88.0203 58.1941 87.3738 59.0548C88.0203 59.9155 89.0496 60.4722 90.2089 60.4722C91.3682 60.4722 92.3974 59.9155 93.0439 59.0548C92.3974 58.1941 91.3682 57.6374 90.2089 57.6374Z" fill="#F9F9FA"/>
<path d="M90.9261 59.9429C90.4878 59.9429 90.1325 59.5876 90.1325 59.1493V59.1493C90.1325 58.711 90.4878 58.3557 90.9261 58.3557V58.3557C91.3644 58.3557 91.7197 58.711 91.7197 59.1493V59.1493C91.7197 59.5876 91.3644 59.9429 90.9261 59.9429V59.9429Z" fill="#F9F9FA"/>
<path d="M68.498 49.202L62.2969 24.4004H71.211L74.0532 39.5139H74.247L77.4121 24.4004H86.0679L89.3622 39.3847H89.556L92.269 24.4004H101.183L94.982 49.202H85.3573L81.8692 35.897H81.6108L78.1227 49.202H68.498Z" fill="#F9F9FA"/>
</svg>
